<?xml version="1.0" encoding="UTF-8" standalone="no"?>
<!DOCTYPE svg PUBLIC "-//W3C//DTD SVG 1.1//EN"
 "http://www.w3.org/Graphics/SVG/1.1/DTD/svg11.dtd">
<!-- Generated by graphviz version 2.36.0 (20140111.2315)
 -->
<!-- Title: controllers_diagram Pages: 1 -->
<svg width="890pt" height="921pt"
 viewBox="0.00 0.00 890.00 921.00" xmlns="http://www.w3.org/2000/svg" xmlns:xlink="http://www.w3.org/1999/xlink">
<g id="graph0" class="graph" transform="scale(1 1) rotate(0) translate(4 917)">
<title>controllers_diagram</title>
<polygon fill="none" stroke="none" points="-4,4 -4,-917 886,-917 886,4 -4,4"/>
<!-- _diagram_info -->
<g id="node1" class="node"><title>_diagram_info</title>
<text text-anchor="start" x="620" y="-454.6" font-family="Times,serif" font-size="13.00">Controllers diagram</text>
<text text-anchor="start" x="620" y="-440.6" font-family="Times,serif" font-size="13.00">Date: Aug 18 2015 &#45; 20:58</text>
<text text-anchor="start" x="620" y="-426.6" font-family="Times,serif" font-size="13.00">Migration version: 20150713223158</text>
<text text-anchor="start" x="620" y="-412.6" font-family="Times,serif" font-size="13.00">Generated by RailRoady 1.3.1</text>
<text text-anchor="start" x="620" y="-398.6" font-family="Times,serif" font-size="13.00">http://railroady.prestonlee.com</text>
</g>
<!-- CoursesController -->
<g id="node2" class="node"><title>CoursesController</title>
<path fill="none" stroke="black" d="M131,-629.5C131,-629.5 223,-629.5 223,-629.5 229,-629.5 235,-635.5 235,-641.5 235,-641.5 235,-815.5 235,-815.5 235,-821.5 229,-827.5 223,-827.5 223,-827.5 131,-827.5 131,-827.5 125,-827.5 119,-821.5 119,-815.5 119,-815.5 119,-641.5 119,-641.5 119,-635.5 125,-629.5 131,-629.5"/>
<text text-anchor="middle" x="177" y="-812.3" font-family="Times,serif" font-size="14.00">CoursesController</text>
<polyline fill="none" stroke="black" points="119,-804.5 235,-804.5 "/>
<text text-anchor="start" x="127" y="-789.3" font-family="Times,serif" font-size="14.00">create</text>
<text text-anchor="start" x="127" y="-774.3" font-family="Times,serif" font-size="14.00">destroy</text>
<text text-anchor="start" x="127" y="-759.3" font-family="Times,serif" font-size="14.00">edit</text>
<text text-anchor="start" x="127" y="-744.3" font-family="Times,serif" font-size="14.00">index</text>
<text text-anchor="start" x="127" y="-729.3" font-family="Times,serif" font-size="14.00">new</text>
<text text-anchor="start" x="127" y="-714.3" font-family="Times,serif" font-size="14.00">show</text>
<text text-anchor="start" x="127" y="-699.3" font-family="Times,serif" font-size="14.00">update</text>
<polyline fill="none" stroke="black" points="119,-691.5 235,-691.5 "/>
<polyline fill="none" stroke="black" points="119,-667.5 235,-667.5 "/>
<text text-anchor="start" x="127" y="-652.3" font-family="Times,serif" font-size="14.00">_layout</text>
<text text-anchor="start" x="127" y="-637.3" font-family="Times,serif" font-size="14.00">course_params</text>
</g>
<!-- QuizController -->
<g id="node3" class="node"><title>QuizController</title>
<path fill="none" stroke="black" d="M12,-391.5C12,-391.5 86,-391.5 86,-391.5 92,-391.5 98,-397.5 98,-403.5 98,-403.5 98,-532.5 98,-532.5 98,-538.5 92,-544.5 86,-544.5 86,-544.5 12,-544.5 12,-544.5 6,-544.5 0,-538.5 0,-532.5 0,-532.5 0,-403.5 0,-403.5 0,-397.5 6,-391.5 12,-391.5"/>
<text text-anchor="middle" x="49" y="-529.3" font-family="Times,serif" font-size="14.00">QuizController</text>
<polyline fill="none" stroke="black" points="0,-521.5 98,-521.5 "/>
<text text-anchor="start" x="8" y="-506.3" font-family="Times,serif" font-size="14.00">answer</text>
<text text-anchor="start" x="8" y="-491.3" font-family="Times,serif" font-size="14.00">end</text>
<text text-anchor="start" x="8" y="-476.3" font-family="Times,serif" font-size="14.00">index</text>
<text text-anchor="start" x="8" y="-461.3" font-family="Times,serif" font-size="14.00">question</text>
<text text-anchor="start" x="8" y="-446.3" font-family="Times,serif" font-size="14.00">start</text>
<polyline fill="none" stroke="black" points="0,-438.5 98,-438.5 "/>
<polyline fill="none" stroke="black" points="0,-414.5 98,-414.5 "/>
<text text-anchor="start" x="8" y="-399.3" font-family="Times,serif" font-size="14.00">_layout</text>
</g>
<!-- MailboxController -->
<g id="node4" class="node"><title>MailboxController</title>
<path fill="none" stroke="black" d="M760,-0.5C760,-0.5 855,-0.5 855,-0.5 861,-0.5 867,-6.5 867,-12.5 867,-12.5 867,-111.5 867,-111.5 867,-117.5 861,-123.5 855,-123.5 855,-123.5 760,-123.5 760,-123.5 754,-123.5 748,-117.5 748,-111.5 748,-111.5 748,-12.5 748,-12.5 748,-6.5 754,-0.5 760,-0.5"/>
<text text-anchor="middle" x="807.5" y="-108.3" font-family="Times,serif" font-size="14.00">MailboxController</text>
<polyline fill="none" stroke="black" points="748,-100.5 867,-100.5 "/>
<text text-anchor="start" x="756" y="-85.3" font-family="Times,serif" font-size="14.00">inbox</text>
<text text-anchor="start" x="756" y="-70.3" font-family="Times,serif" font-size="14.00">sent</text>
<text text-anchor="start" x="756" y="-55.3" font-family="Times,serif" font-size="14.00">trash</text>
<polyline fill="none" stroke="black" points="748,-47.5 867,-47.5 "/>
<polyline fill="none" stroke="black" points="748,-23.5 867,-23.5 "/>
<text text-anchor="start" x="756" y="-8.3" font-family="Times,serif" font-size="14.00">_layout</text>
</g>
<!-- MicropostsController -->
<g id="node5" class="node"><title>MicropostsController</title>
<path fill="none" stroke="black" d="M80,-102.5C80,-102.5 190,-102.5 190,-102.5 196,-102.5 202,-108.5 202,-114.5 202,-114.5 202,-243.5 202,-243.5 202,-249.5 196,-255.5 190,-255.5 190,-255.5 80,-255.5 80,-255.5 74,-255.5 68,-249.5 68,-243.5 68,-243.5 68,-114.5 68,-114.5 68,-108.5 74,-102.5 80,-102.5"/>
<text text-anchor="middle" x="135" y="-240.3" font-family="Times,serif" font-size="14.00">MicropostsController</text>
<polyline fill="none" stroke="black" points="68,-232.5 202,-232.5 "/>
<text text-anchor="start" x="76" y="-217.3" font-family="Times,serif" font-size="14.00">create</text>
<text text-anchor="start" x="76" y="-202.3" font-family="Times,serif" font-size="14.00">destroy</text>
<text text-anchor="start" x="76" y="-187.3" font-family="Times,serif" font-size="14.00">new</text>
<polyline fill="none" stroke="black" points="68,-179.5 202,-179.5 "/>
<polyline fill="none" stroke="black" points="68,-155.5 202,-155.5 "/>
<text text-anchor="start" x="76" y="-140.3" font-family="Times,serif" font-size="14.00">_layout</text>
<text text-anchor="start" x="76" y="-125.3" font-family="Times,serif" font-size="14.00">correct_user</text>
<text text-anchor="start" x="76" y="-110.3" font-family="Times,serif" font-size="14.00">micropost_params</text>
</g>
<!-- ApplicationController -->
<g id="node6" class="node"><title>ApplicationController</title>
<path fill="none" stroke="black" d="M539,-561.5C539,-561.5 709,-561.5 709,-561.5 715,-561.5 721,-567.5 721,-573.5 721,-573.5 721,-672.5 721,-672.5 721,-678.5 715,-684.5 709,-684.5 709,-684.5 539,-684.5 539,-684.5 533,-684.5 527,-678.5 527,-672.5 527,-672.5 527,-573.5 527,-573.5 527,-567.5 533,-561.5 539,-561.5"/>
<text text-anchor="middle" x="624" y="-669.3" font-family="Times,serif" font-size="14.00">ApplicationController</text>
<polyline fill="none" stroke="black" points="527,-661.5 721,-661.5 "/>
<polyline fill="none" stroke="black" points="527,-637.5 721,-637.5 "/>
<text text-anchor="start" x="535" y="-622.3" font-family="Times,serif" font-size="14.00">configure_permitted_parameters</text>
<polyline fill="none" stroke="black" points="527,-614.5 721,-614.5 "/>
<text text-anchor="start" x="535" y="-599.3" font-family="Times,serif" font-size="14.00">_layout</text>
<text text-anchor="start" x="535" y="-584.3" font-family="Times,serif" font-size="14.00">conversation</text>
<text text-anchor="start" x="535" y="-569.3" font-family="Times,serif" font-size="14.00">mailbox</text>
</g>
<!-- RelationshipsController -->
<g id="node7" class="node"><title>RelationshipsController</title>
<path fill="none" stroke="black" d="M505,-714.5C505,-714.5 627,-714.5 627,-714.5 633,-714.5 639,-720.5 639,-726.5 639,-726.5 639,-810.5 639,-810.5 639,-816.5 633,-822.5 627,-822.5 627,-822.5 505,-822.5 505,-822.5 499,-822.5 493,-816.5 493,-810.5 493,-810.5 493,-726.5 493,-726.5 493,-720.5 499,-714.5 505,-714.5"/>
<text text-anchor="middle" x="566" y="-807.3" font-family="Times,serif" font-size="14.00">RelationshipsController</text>
<polyline fill="none" stroke="black" points="493,-799.5 639,-799.5 "/>
<text text-anchor="start" x="501" y="-784.3" font-family="Times,serif" font-size="14.00">create</text>
<text text-anchor="start" x="501" y="-769.3" font-family="Times,serif" font-size="14.00">destroy</text>
<polyline fill="none" stroke="black" points="493,-761.5 639,-761.5 "/>
<polyline fill="none" stroke="black" points="493,-737.5 639,-737.5 "/>
<text text-anchor="start" x="501" y="-722.3" font-family="Times,serif" font-size="14.00">_layout</text>
</g>
<!-- ChoicesController -->
<g id="node8" class="node"><title>ChoicesController</title>
<path fill="none" stroke="black" d="M573,-0.5C573,-0.5 665,-0.5 665,-0.5 671,-0.5 677,-6.5 677,-12.5 677,-12.5 677,-96.5 677,-96.5 677,-102.5 671,-108.5 665,-108.5 665,-108.5 573,-108.5 573,-108.5 567,-108.5 561,-102.5 561,-96.5 561,-96.5 561,-12.5 561,-12.5 561,-6.5 567,-0.5 573,-0.5"/>
<text text-anchor="middle" x="619" y="-93.3" font-family="Times,serif" font-size="14.00">ChoicesController</text>
<polyline fill="none" stroke="black" points="561,-85.5 677,-85.5 "/>
<text text-anchor="start" x="569" y="-70.3" font-family="Times,serif" font-size="14.00">create</text>
<text text-anchor="start" x="569" y="-55.3" font-family="Times,serif" font-size="14.00">destroy</text>
<polyline fill="none" stroke="black" points="561,-47.5 677,-47.5 "/>
<polyline fill="none" stroke="black" points="561,-23.5 677,-23.5 "/>
<text text-anchor="start" x="569" y="-8.3" font-family="Times,serif" font-size="14.00">_layout</text>
</g>
<!-- ContentsController -->
<g id="node9" class="node"><title>ContentsController</title>
<path fill="none" stroke="black" d="M760,-153.5C760,-153.5 856,-153.5 856,-153.5 862,-153.5 868,-159.5 868,-165.5 868,-165.5 868,-249.5 868,-249.5 868,-255.5 862,-261.5 856,-261.5 856,-261.5 760,-261.5 760,-261.5 754,-261.5 748,-255.5 748,-249.5 748,-249.5 748,-165.5 748,-165.5 748,-159.5 754,-153.5 760,-153.5"/>
<text text-anchor="middle" x="808" y="-246.3" font-family="Times,serif" font-size="14.00">ContentsController</text>
<polyline fill="none" stroke="black" points="748,-238.5 868,-238.5 "/>
<text text-anchor="start" x="756" y="-223.3" font-family="Times,serif" font-size="14.00">index</text>
<polyline fill="none" stroke="black" points="748,-215.5 868,-215.5 "/>
<polyline fill="none" stroke="black" points="748,-191.5 868,-191.5 "/>
<text text-anchor="start" x="756" y="-176.3" font-family="Times,serif" font-size="14.00">_layout</text>
<text text-anchor="start" x="756" y="-161.3" font-family="Times,serif" font-size="14.00">get_unit</text>
</g>
<!-- ConversationsController -->
<g id="node10" class="node"><title>ConversationsController</title>
<path fill="none" stroke="black" d="M437,-323.5C437,-323.5 562,-323.5 562,-323.5 568,-323.5 574,-329.5 574,-335.5 574,-335.5 574,-509.5 574,-509.5 574,-515.5 568,-521.5 562,-521.5 562,-521.5 437,-521.5 437,-521.5 431,-521.5 425,-515.5 425,-509.5 425,-509.5 425,-335.5 425,-335.5 425,-329.5 431,-323.5 437,-323.5"/>
<text text-anchor="middle" x="499.5" y="-506.3" font-family="Times,serif" font-size="14.00">ConversationsController</text>
<polyline fill="none" stroke="black" points="425,-498.5 574,-498.5 "/>
<text text-anchor="start" x="433" y="-483.3" font-family="Times,serif" font-size="14.00">create</text>
<text text-anchor="start" x="433" y="-468.3" font-family="Times,serif" font-size="14.00">new</text>
<text text-anchor="start" x="433" y="-453.3" font-family="Times,serif" font-size="14.00">reply</text>
<text text-anchor="start" x="433" y="-438.3" font-family="Times,serif" font-size="14.00">show</text>
<text text-anchor="start" x="433" y="-423.3" font-family="Times,serif" font-size="14.00">trash</text>
<text text-anchor="start" x="433" y="-408.3" font-family="Times,serif" font-size="14.00">untrash</text>
<polyline fill="none" stroke="black" points="425,-400.5 574,-400.5 "/>
<polyline fill="none" stroke="black" points="425,-376.5 574,-376.5 "/>
<text text-anchor="start" x="433" y="-361.3" font-family="Times,serif" font-size="14.00">_layout</text>
<text text-anchor="start" x="433" y="-346.3" font-family="Times,serif" font-size="14.00">conversation_params</text>
<text text-anchor="start" x="433" y="-331.3" font-family="Times,serif" font-size="14.00">message_params</text>
</g>
<!-- QuestionsController -->
<g id="node11" class="node"><title>QuestionsController</title>
<path fill="none" stroke="black" d="M148,-289.5C148,-289.5 250,-289.5 250,-289.5 256,-289.5 262,-295.5 262,-301.5 262,-301.5 262,-475.5 262,-475.5 262,-481.5 256,-487.5 250,-487.5 250,-487.5 148,-487.5 148,-487.5 142,-487.5 136,-481.5 136,-475.5 136,-475.5 136,-301.5 136,-301.5 136,-295.5 142,-289.5 148,-289.5"/>
<text text-anchor="middle" x="199" y="-472.3" font-family="Times,serif" font-size="14.00">QuestionsController</text>
<polyline fill="none" stroke="black" points="136,-464.5 262,-464.5 "/>
<text text-anchor="start" x="144" y="-449.3" font-family="Times,serif" font-size="14.00">create</text>
<text text-anchor="start" x="144" y="-434.3" font-family="Times,serif" font-size="14.00">destroy</text>
<text text-anchor="start" x="144" y="-419.3" font-family="Times,serif" font-size="14.00">edit</text>
<text text-anchor="start" x="144" y="-404.3" font-family="Times,serif" font-size="14.00">index</text>
<text text-anchor="start" x="144" y="-389.3" font-family="Times,serif" font-size="14.00">new</text>
<text text-anchor="start" x="144" y="-374.3" font-family="Times,serif" font-size="14.00">show</text>
<text text-anchor="start" x="144" y="-359.3" font-family="Times,serif" font-size="14.00">update</text>
<polyline fill="none" stroke="black" points="136,-351.5 262,-351.5 "/>
<polyline fill="none" stroke="black" points="136,-327.5 262,-327.5 "/>
<text text-anchor="start" x="144" y="-312.3" font-family="Times,serif" font-size="14.00">_layout</text>
<text text-anchor="start" x="144" y="-297.3" font-family="Times,serif" font-size="14.00">params_question</text>
</g>
<!-- LecturersController -->
<g id="node12" class="node"><title>LecturersController</title>
<path fill="none" stroke="black" d="M284,-527.5C284,-527.5 383,-527.5 383,-527.5 389,-527.5 395,-533.5 395,-539.5 395,-539.5 395,-728.5 395,-728.5 395,-734.5 389,-740.5 383,-740.5 383,-740.5 284,-740.5 284,-740.5 278,-740.5 272,-734.5 272,-728.5 272,-728.5 272,-539.5 272,-539.5 272,-533.5 278,-527.5 284,-527.5"/>
<text text-anchor="middle" x="333.5" y="-725.3" font-family="Times,serif" font-size="14.00">LecturersController</text>
<polyline fill="none" stroke="black" points="272,-717.5 395,-717.5 "/>
<text text-anchor="start" x="280" y="-702.3" font-family="Times,serif" font-size="14.00">create</text>
<text text-anchor="start" x="280" y="-687.3" font-family="Times,serif" font-size="14.00">destroy</text>
<text text-anchor="start" x="280" y="-672.3" font-family="Times,serif" font-size="14.00">edit</text>
<text text-anchor="start" x="280" y="-657.3" font-family="Times,serif" font-size="14.00">index</text>
<text text-anchor="start" x="280" y="-642.3" font-family="Times,serif" font-size="14.00">new</text>
<text text-anchor="start" x="280" y="-627.3" font-family="Times,serif" font-size="14.00">show</text>
<text text-anchor="start" x="280" y="-612.3" font-family="Times,serif" font-size="14.00">update</text>
<polyline fill="none" stroke="black" points="272,-604.5 395,-604.5 "/>
<polyline fill="none" stroke="black" points="272,-580.5 395,-580.5 "/>
<text text-anchor="start" x="280" y="-565.3" font-family="Times,serif" font-size="14.00">_layout</text>
<text text-anchor="start" x="280" y="-550.3" font-family="Times,serif" font-size="14.00">lecturer_params</text>
<text text-anchor="start" x="280" y="-535.3" font-family="Times,serif" font-size="14.00">set_lecturer</text>
</g>
<!-- RolesController -->
<g id="node13" class="node"><title>RolesController</title>
<path fill="none" stroke="black" d="M624,-136.5C624,-136.5 703,-136.5 703,-136.5 709,-136.5 715,-142.5 715,-148.5 715,-148.5 715,-337.5 715,-337.5 715,-343.5 709,-349.5 703,-349.5 703,-349.5 624,-349.5 624,-349.5 618,-349.5 612,-343.5 612,-337.5 612,-337.5 612,-148.5 612,-148.5 612,-142.5 618,-136.5 624,-136.5"/>
<text text-anchor="middle" x="663.5" y="-334.3" font-family="Times,serif" font-size="14.00">RolesController</text>
<polyline fill="none" stroke="black" points="612,-326.5 715,-326.5 "/>
<text text-anchor="start" x="620" y="-311.3" font-family="Times,serif" font-size="14.00">create</text>
<text text-anchor="start" x="620" y="-296.3" font-family="Times,serif" font-size="14.00">destroy</text>
<text text-anchor="start" x="620" y="-281.3" font-family="Times,serif" font-size="14.00">edit</text>
<text text-anchor="start" x="620" y="-266.3" font-family="Times,serif" font-size="14.00">index</text>
<text text-anchor="start" x="620" y="-251.3" font-family="Times,serif" font-size="14.00">new</text>
<text text-anchor="start" x="620" y="-236.3" font-family="Times,serif" font-size="14.00">show</text>
<text text-anchor="start" x="620" y="-221.3" font-family="Times,serif" font-size="14.00">update</text>
<polyline fill="none" stroke="black" points="612,-213.5 715,-213.5 "/>
<polyline fill="none" stroke="black" points="612,-189.5 715,-189.5 "/>
<text text-anchor="start" x="620" y="-174.3" font-family="Times,serif" font-size="14.00">_layout</text>
<text text-anchor="start" x="620" y="-159.3" font-family="Times,serif" font-size="14.00">role_params</text>
<text text-anchor="start" x="620" y="-144.3" font-family="Times,serif" font-size="14.00">set_role</text>
</g>
<!-- StaticPagesController -->
<g id="node14" class="node"><title>StaticPagesController</title>
<path fill="none" stroke="black" d="M760,-510.5C760,-510.5 870,-510.5 870,-510.5 876,-510.5 882,-516.5 882,-522.5 882,-522.5 882,-591.5 882,-591.5 882,-597.5 876,-603.5 870,-603.5 870,-603.5 760,-603.5 760,-603.5 754,-603.5 748,-597.5 748,-591.5 748,-591.5 748,-522.5 748,-522.5 748,-516.5 754,-510.5 760,-510.5"/>
<text text-anchor="middle" x="815" y="-588.3" font-family="Times,serif" font-size="14.00">StaticPagesController</text>
<polyline fill="none" stroke="black" points="748,-580.5 882,-580.5 "/>
<text text-anchor="start" x="756" y="-565.3" font-family="Times,serif" font-size="14.00">home</text>
<polyline fill="none" stroke="black" points="748,-557.5 882,-557.5 "/>
<polyline fill="none" stroke="black" points="748,-533.5 882,-533.5 "/>
<text text-anchor="start" x="756" y="-518.3" font-family="Times,serif" font-size="14.00">_layout</text>
</g>
<!-- TopicsController -->
<g id="node15" class="node"><title>TopicsController</title>
<path fill="none" stroke="black" d="M437,-85.5C437,-85.5 522,-85.5 522,-85.5 528,-85.5 534,-91.5 534,-97.5 534,-97.5 534,-271.5 534,-271.5 534,-277.5 528,-283.5 522,-283.5 522,-283.5 437,-283.5 437,-283.5 431,-283.5 425,-277.5 425,-271.5 425,-271.5 425,-97.5 425,-97.5 425,-91.5 431,-85.5 437,-85.5"/>
<text text-anchor="middle" x="479.5" y="-268.3" font-family="Times,serif" font-size="14.00">TopicsController</text>
<polyline fill="none" stroke="black" points="425,-260.5 534,-260.5 "/>
<text text-anchor="start" x="433" y="-245.3" font-family="Times,serif" font-size="14.00">create</text>
<text text-anchor="start" x="433" y="-230.3" font-family="Times,serif" font-size="14.00">destroy</text>
<text text-anchor="start" x="433" y="-215.3" font-family="Times,serif" font-size="14.00">edit</text>
<text text-anchor="start" x="433" y="-200.3" font-family="Times,serif" font-size="14.00">index</text>
<text text-anchor="start" x="433" y="-185.3" font-family="Times,serif" font-size="14.00">new</text>
<text text-anchor="start" x="433" y="-170.3" font-family="Times,serif" font-size="14.00">show</text>
<text text-anchor="start" x="433" y="-155.3" font-family="Times,serif" font-size="14.00">update</text>
<polyline fill="none" stroke="black" points="425,-147.5 534,-147.5 "/>
<polyline fill="none" stroke="black" points="425,-123.5 534,-123.5 "/>
<text text-anchor="start" x="433" y="-108.3" font-family="Times,serif" font-size="14.00">_layout</text>
<text text-anchor="start" x="433" y="-93.3" font-family="Times,serif" font-size="14.00">topic_params</text>
</g>
<!-- CommentsController -->
<g id="node16" class="node"><title>CommentsController</title>
<path fill="none" stroke="black" d="M250,-68.5C250,-68.5 358,-68.5 358,-68.5 364,-68.5 370,-74.5 370,-80.5 370,-80.5 370,-209.5 370,-209.5 370,-215.5 364,-221.5 358,-221.5 358,-221.5 250,-221.5 250,-221.5 244,-221.5 238,-215.5 238,-209.5 238,-209.5 238,-80.5 238,-80.5 238,-74.5 244,-68.5 250,-68.5"/>
<text text-anchor="middle" x="304" y="-206.3" font-family="Times,serif" font-size="14.00">CommentsController</text>
<polyline fill="none" stroke="black" points="238,-198.5 370,-198.5 "/>
<text text-anchor="start" x="246" y="-183.3" font-family="Times,serif" font-size="14.00">create</text>
<text text-anchor="start" x="246" y="-168.3" font-family="Times,serif" font-size="14.00">index</text>
<text text-anchor="start" x="246" y="-153.3" font-family="Times,serif" font-size="14.00">new</text>
<polyline fill="none" stroke="black" points="238,-145.5 370,-145.5 "/>
<polyline fill="none" stroke="black" points="238,-121.5 370,-121.5 "/>
<text text-anchor="start" x="246" y="-106.3" font-family="Times,serif" font-size="14.00">_layout</text>
<text text-anchor="start" x="246" y="-91.3" font-family="Times,serif" font-size="14.00">find_commentable</text>
<text text-anchor="start" x="246" y="-76.3" font-family="Times,serif" font-size="14.00">param_comments</text>
</g>
<!-- UsersController -->
<g id="node17" class="node"><title>UsersController</title>
<path fill="none" stroke="black" d="M301,-255.5C301,-255.5 388,-255.5 388,-255.5 394,-255.5 400,-261.5 400,-267.5 400,-267.5 400,-485.5 400,-485.5 400,-491.5 394,-497.5 388,-497.5 388,-497.5 301,-497.5 301,-497.5 295,-497.5 289,-491.5 289,-485.5 289,-485.5 289,-267.5 289,-267.5 289,-261.5 295,-255.5 301,-255.5"/>
<text text-anchor="middle" x="344.5" y="-482.3" font-family="Times,serif" font-size="14.00">UsersController</text>
<polyline fill="none" stroke="black" points="289,-474.5 400,-474.5 "/>
<text text-anchor="start" x="297" y="-459.3" font-family="Times,serif" font-size="14.00">create</text>
<text text-anchor="start" x="297" y="-444.3" font-family="Times,serif" font-size="14.00">destroy</text>
<text text-anchor="start" x="297" y="-429.3" font-family="Times,serif" font-size="14.00">edit</text>
<text text-anchor="start" x="297" y="-414.3" font-family="Times,serif" font-size="14.00">followers</text>
<text text-anchor="start" x="297" y="-399.3" font-family="Times,serif" font-size="14.00">following</text>
<text text-anchor="start" x="297" y="-384.3" font-family="Times,serif" font-size="14.00">index</text>
<text text-anchor="start" x="297" y="-369.3" font-family="Times,serif" font-size="14.00">new</text>
<text text-anchor="start" x="297" y="-354.3" font-family="Times,serif" font-size="14.00">show</text>
<text text-anchor="start" x="297" y="-339.3" font-family="Times,serif" font-size="14.00">update</text>
<polyline fill="none" stroke="black" points="289,-331.5 400,-331.5 "/>
<text text-anchor="start" x="297" y="-316.3" font-family="Times,serif" font-size="14.00">needs_password?</text>
<polyline fill="none" stroke="black" points="289,-308.5 400,-308.5 "/>
<text text-anchor="start" x="297" y="-293.3" font-family="Times,serif" font-size="14.00">_layout</text>
<text text-anchor="start" x="297" y="-278.3" font-family="Times,serif" font-size="14.00">set_user</text>
<text text-anchor="start" x="297" y="-263.3" font-family="Times,serif" font-size="14.00">user_params</text>
</g>
<!-- UnitsController -->
<g id="node18" class="node"><title>UnitsController</title>
<path fill="none" stroke="black" d="M692,-714.5C692,-714.5 769,-714.5 769,-714.5 775,-714.5 781,-720.5 781,-726.5 781,-726.5 781,-900.5 781,-900.5 781,-906.5 775,-912.5 769,-912.5 769,-912.5 692,-912.5 692,-912.5 686,-912.5 680,-906.5 680,-900.5 680,-900.5 680,-726.5 680,-726.5 680,-720.5 686,-714.5 692,-714.5"/>
<text text-anchor="middle" x="730.5" y="-897.3" font-family="Times,serif" font-size="14.00">UnitsController</text>
<polyline fill="none" stroke="black" points="680,-889.5 781,-889.5 "/>
<text text-anchor="start" x="688" y="-874.3" font-family="Times,serif" font-size="14.00">create</text>
<text text-anchor="start" x="688" y="-859.3" font-family="Times,serif" font-size="14.00">destroy</text>
<text text-anchor="start" x="688" y="-844.3" font-family="Times,serif" font-size="14.00">edit</text>
<text text-anchor="start" x="688" y="-829.3" font-family="Times,serif" font-size="14.00">index</text>
<text text-anchor="start" x="688" y="-814.3" font-family="Times,serif" font-size="14.00">new</text>
<text text-anchor="start" x="688" y="-799.3" font-family="Times,serif" font-size="14.00">show</text>
<text text-anchor="start" x="688" y="-784.3" font-family="Times,serif" font-size="14.00">update</text>
<polyline fill="none" stroke="black" points="680,-776.5 781,-776.5 "/>
<polyline fill="none" stroke="black" points="680,-752.5 781,-752.5 "/>
<text text-anchor="start" x="688" y="-737.3" font-family="Times,serif" font-size="14.00">_layout</text>
<text text-anchor="start" x="688" y="-722.3" font-family="Times,serif" font-size="14.00">params_unit</text>
</g>
</g>
</svg>
