<?xml version="1.0" encoding="UTF-8" standalone="no"?>
<!DOCTYPE svg PUBLIC "-//W3C//DTD SVG 1.1//EN"
 "http://www.w3.org/Graphics/SVG/1.1/DTD/svg11.dtd">
<!-- Generated by graphviz version 2.36.0 (20140111.2315)
 -->
<!-- Title: models_diagram Pages: 1 -->
<svg width="1180pt" height="1396pt"
 viewBox="0.00 0.00 1180.00 1396.00" xmlns="http://www.w3.org/2000/svg" xmlns:xlink="http://www.w3.org/1999/xlink">
<g id="graph0" class="graph" transform="scale(1 1) rotate(0) translate(4 1392)">
<title>models_diagram</title>
<polygon fill="none" stroke="none" points="-4,4 -4,-1392 1176,-1392 1176,4 -4,4"/>
<!-- _diagram_info -->
<g id="node1" class="node"><title>_diagram_info</title>
<text text-anchor="start" x="7" y="-1253.6" font-family="Times,serif" font-size="13.00">Models diagram</text>
<text text-anchor="start" x="7" y="-1239.6" font-family="Times,serif" font-size="13.00">Date: Aug 18 2015 &#45; 20:57</text>
<text text-anchor="start" x="7" y="-1225.6" font-family="Times,serif" font-size="13.00">Migration version: 20150713223158</text>
<text text-anchor="start" x="7" y="-1211.6" font-family="Times,serif" font-size="13.00">Generated by RailRoady 1.3.1</text>
<text text-anchor="start" x="7" y="-1197.6" font-family="Times,serif" font-size="13.00">http://railroady.prestonlee.com</text>
</g>
<!-- Lecturer -->
<g id="node2" class="node"><title>Lecturer</title>
<path fill="none" stroke="black" d="M243,-1071C243,-1071 419,-1071 419,-1071 425,-1071 431,-1077 431,-1083 431,-1083 431,-1375 431,-1375 431,-1381 425,-1387 419,-1387 419,-1387 243,-1387 243,-1387 237,-1387 231,-1381 231,-1375 231,-1375 231,-1083 231,-1083 231,-1077 237,-1071 243,-1071"/>
<text text-anchor="middle" x="331" y="-1371.8" font-family="Times,serif" font-size="14.00">Lecturer</text>
<polyline fill="none" stroke="black" points="231,-1364 431,-1364 "/>
<text text-anchor="start" x="239" y="-1348.8" font-family="Times,serif" font-size="14.00">id :integer</text>
<text text-anchor="start" x="239" y="-1333.8" font-family="Times,serif" font-size="14.00">email :string</text>
<text text-anchor="start" x="239" y="-1318.8" font-family="Times,serif" font-size="14.00">encrypted_password :string</text>
<text text-anchor="start" x="239" y="-1303.8" font-family="Times,serif" font-size="14.00">reset_password_token :string</text>
<text text-anchor="start" x="239" y="-1288.8" font-family="Times,serif" font-size="14.00">reset_password_sent_at :datetime</text>
<text text-anchor="start" x="239" y="-1273.8" font-family="Times,serif" font-size="14.00">remember_created_at :datetime</text>
<text text-anchor="start" x="239" y="-1258.8" font-family="Times,serif" font-size="14.00">sign_in_count :integer</text>
<text text-anchor="start" x="239" y="-1243.8" font-family="Times,serif" font-size="14.00">current_sign_in_at :datetime</text>
<text text-anchor="start" x="239" y="-1228.8" font-family="Times,serif" font-size="14.00">last_sign_in_at :datetime</text>
<text text-anchor="start" x="239" y="-1213.8" font-family="Times,serif" font-size="14.00">current_sign_in_ip :inet</text>
<text text-anchor="start" x="239" y="-1198.8" font-family="Times,serif" font-size="14.00">last_sign_in_ip :inet</text>
<text text-anchor="start" x="239" y="-1183.8" font-family="Times,serif" font-size="14.00">nip :string</text>
<text text-anchor="start" x="239" y="-1168.8" font-family="Times,serif" font-size="14.00">name :string</text>
<text text-anchor="start" x="239" y="-1153.8" font-family="Times,serif" font-size="14.00">place :string</text>
<text text-anchor="start" x="239" y="-1138.8" font-family="Times,serif" font-size="14.00">born :date</text>
<text text-anchor="start" x="239" y="-1123.8" font-family="Times,serif" font-size="14.00">work_unit :string</text>
<text text-anchor="start" x="239" y="-1108.8" font-family="Times,serif" font-size="14.00">address :string</text>
<text text-anchor="start" x="239" y="-1093.8" font-family="Times,serif" font-size="14.00">phone :string</text>
<text text-anchor="start" x="239" y="-1078.8" font-family="Times,serif" font-size="14.00">role_id :string</text>
</g>
<!-- Micropost -->
<g id="node3" class="node"><title>Micropost</title>
<path fill="none" stroke="black" d="M159.5,-518C159.5,-518 266.5,-518 266.5,-518 272.5,-518 278.5,-524 278.5,-530 278.5,-530 278.5,-612 278.5,-612 278.5,-618 272.5,-624 266.5,-624 266.5,-624 159.5,-624 159.5,-624 153.5,-624 147.5,-618 147.5,-612 147.5,-612 147.5,-530 147.5,-530 147.5,-524 153.5,-518 159.5,-518"/>
<text text-anchor="middle" x="213" y="-608.8" font-family="Times,serif" font-size="14.00">Micropost</text>
<polyline fill="none" stroke="black" points="147.5,-601 278.5,-601 "/>
<text text-anchor="start" x="155.5" y="-585.8" font-family="Times,serif" font-size="14.00">id :integer</text>
<text text-anchor="start" x="155.5" y="-570.8" font-family="Times,serif" font-size="14.00">content :string</text>
<text text-anchor="start" x="155.5" y="-555.8" font-family="Times,serif" font-size="14.00">user_id :integer</text>
<text text-anchor="start" x="155.5" y="-540.8" font-family="Times,serif" font-size="14.00">created_at :datetime</text>
<text text-anchor="start" x="155.5" y="-525.8" font-family="Times,serif" font-size="14.00">updated_at :datetime</text>
</g>
<!-- Ability -->
<g id="node4" class="node"><title>Ability</title>
<polygon fill="none" stroke="black" points="598.5,-1206 598.5,-1252 653.5,-1252 653.5,-1206 598.5,-1206"/>
<text text-anchor="middle" x="626" y="-1236.8" font-family="Times,serif" font-size="14.00">Ability</text>
<polyline fill="none" stroke="black" points="598.5,-1229 653.5,-1229 "/>
<text text-anchor="middle" x="626" y="-1213.8" font-family="Times,serif" font-size="14.00"> </text>
</g>
<!-- Topic -->
<g id="node5" class="node"><title>Topic</title>
<path fill="none" stroke="black" d="M309,-480.5C309,-480.5 455,-480.5 455,-480.5 461,-480.5 467,-486.5 467,-492.5 467,-492.5 467,-649.5 467,-649.5 467,-655.5 461,-661.5 455,-661.5 455,-661.5 309,-661.5 309,-661.5 303,-661.5 297,-655.5 297,-649.5 297,-649.5 297,-492.5 297,-492.5 297,-486.5 303,-480.5 309,-480.5"/>
<text text-anchor="middle" x="382" y="-646.3" font-family="Times,serif" font-size="14.00">Topic</text>
<polyline fill="none" stroke="black" points="297,-638.5 467,-638.5 "/>
<text text-anchor="start" x="305" y="-623.3" font-family="Times,serif" font-size="14.00">id :integer</text>
<text text-anchor="start" x="305" y="-608.3" font-family="Times,serif" font-size="14.00">level :string</text>
<text text-anchor="start" x="305" y="-593.3" font-family="Times,serif" font-size="14.00">description :string</text>
<text text-anchor="start" x="305" y="-578.3" font-family="Times,serif" font-size="14.00">created_at :datetime</text>
<text text-anchor="start" x="305" y="-563.3" font-family="Times,serif" font-size="14.00">updated_at :datetime</text>
<text text-anchor="start" x="305" y="-548.3" font-family="Times,serif" font-size="14.00">avatar_file_name :string</text>
<text text-anchor="start" x="305" y="-533.3" font-family="Times,serif" font-size="14.00">avatar_content_type :string</text>
<text text-anchor="start" x="305" y="-518.3" font-family="Times,serif" font-size="14.00">avatar_file_size :integer</text>
<text text-anchor="start" x="305" y="-503.3" font-family="Times,serif" font-size="14.00">avatar_updated_at :datetime</text>
<text text-anchor="start" x="305" y="-488.3" font-family="Times,serif" font-size="14.00">user_id :integer</text>
</g>
<!-- Unit -->
<g id="node15" class="node"><title>Unit</title>
<path fill="none" stroke="black" d="M557.5,-320.5C557.5,-320.5 664.5,-320.5 664.5,-320.5 670.5,-320.5 676.5,-326.5 676.5,-332.5 676.5,-332.5 676.5,-429.5 676.5,-429.5 676.5,-435.5 670.5,-441.5 664.5,-441.5 664.5,-441.5 557.5,-441.5 557.5,-441.5 551.5,-441.5 545.5,-435.5 545.5,-429.5 545.5,-429.5 545.5,-332.5 545.5,-332.5 545.5,-326.5 551.5,-320.5 557.5,-320.5"/>
<text text-anchor="middle" x="611" y="-426.3" font-family="Times,serif" font-size="14.00">Unit</text>
<polyline fill="none" stroke="black" points="545.5,-418.5 676.5,-418.5 "/>
<text text-anchor="start" x="553.5" y="-403.3" font-family="Times,serif" font-size="14.00">id :integer</text>
<text text-anchor="start" x="553.5" y="-388.3" font-family="Times,serif" font-size="14.00">topic_id :integer</text>
<text text-anchor="start" x="553.5" y="-373.3" font-family="Times,serif" font-size="14.00">content :string</text>
<text text-anchor="start" x="553.5" y="-358.3" font-family="Times,serif" font-size="14.00">created_at :datetime</text>
<text text-anchor="start" x="553.5" y="-343.3" font-family="Times,serif" font-size="14.00">updated_at :datetime</text>
<text text-anchor="start" x="553.5" y="-328.3" font-family="Times,serif" font-size="14.00">user_id :integer</text>
</g>
<!-- Topic&#45;&gt;Unit -->
<g id="edge1" class="edge"><title>Topic&#45;&gt;Unit</title>
<path fill="none" stroke="#ad2a21" d="M473.357,-483.061C474.575,-482.03 475.789,-481.009 477,-480 495.971,-464.185 517.256,-447.977 537.18,-433.411"/>
<ellipse fill="none" stroke="#ad2a21" cx="470.286" cy="-485.69" rx="4.00002" ry="4.00002"/>
<polygon fill="#ad2a21" stroke="#ad2a21" points="537.239,-433.368 547.974,-431.13 541.284,-430.429 545.328,-427.489 545.328,-427.489 545.328,-427.489 541.284,-430.429 542.683,-423.849 537.239,-433.368 537.239,-433.368"/>
</g>
<!-- Question -->
<g id="node16" class="node"><title>Question</title>
<path fill="none" stroke="black" d="M328.5,-328C328.5,-328 435.5,-328 435.5,-328 441.5,-328 447.5,-334 447.5,-340 447.5,-340 447.5,-422 447.5,-422 447.5,-428 441.5,-434 435.5,-434 435.5,-434 328.5,-434 328.5,-434 322.5,-434 316.5,-428 316.5,-422 316.5,-422 316.5,-340 316.5,-340 316.5,-334 322.5,-328 328.5,-328"/>
<text text-anchor="middle" x="382" y="-418.8" font-family="Times,serif" font-size="14.00">Question</text>
<polyline fill="none" stroke="black" points="316.5,-411 447.5,-411 "/>
<text text-anchor="start" x="324.5" y="-395.8" font-family="Times,serif" font-size="14.00">id :integer</text>
<text text-anchor="start" x="324.5" y="-380.8" font-family="Times,serif" font-size="14.00">text :string</text>
<text text-anchor="start" x="324.5" y="-365.8" font-family="Times,serif" font-size="14.00">created_at :datetime</text>
<text text-anchor="start" x="324.5" y="-350.8" font-family="Times,serif" font-size="14.00">updated_at :datetime</text>
<text text-anchor="start" x="324.5" y="-335.8" font-family="Times,serif" font-size="14.00">topic_id :string</text>
</g>
<!-- Topic&#45;&gt;Question -->
<g id="edge2" class="edge"><title>Topic&#45;&gt;Question</title>
<path fill="none" stroke="#6de276" d="M382,-472.207C382,-462.645 382,-453.135 382,-444.074"/>
<ellipse fill="none" stroke="#6de276" cx="382" cy="-476.405" rx="4" ry="4"/>
<polygon fill="#6de276" stroke="#6de276" points="382,-444.056 386.5,-434.056 382,-439.056 382,-434.056 382,-434.056 382,-434.056 382,-439.056 377.5,-434.057 382,-444.056 382,-444.056"/>
</g>
<!-- Comment -->
<g id="node6" class="node"><title>Comment</title>
<path fill="none" stroke="black" d="M560.5,-0.5C560.5,-0.5 695.5,-0.5 695.5,-0.5 701.5,-0.5 707.5,-6.5 707.5,-12.5 707.5,-12.5 707.5,-109.5 707.5,-109.5 707.5,-115.5 701.5,-121.5 695.5,-121.5 695.5,-121.5 560.5,-121.5 560.5,-121.5 554.5,-121.5 548.5,-115.5 548.5,-109.5 548.5,-109.5 548.5,-12.5 548.5,-12.5 548.5,-6.5 554.5,-0.5 560.5,-0.5"/>
<text text-anchor="middle" x="628" y="-106.3" font-family="Times,serif" font-size="14.00">Comment</text>
<polyline fill="none" stroke="black" points="548.5,-98.5 707.5,-98.5 "/>
<text text-anchor="start" x="556.5" y="-83.3" font-family="Times,serif" font-size="14.00">id :integer</text>
<text text-anchor="start" x="556.5" y="-68.3" font-family="Times,serif" font-size="14.00">content :string</text>
<text text-anchor="start" x="556.5" y="-53.3" font-family="Times,serif" font-size="14.00">commentable_id :integer</text>
<text text-anchor="start" x="556.5" y="-38.3" font-family="Times,serif" font-size="14.00">commentable_type :string</text>
<text text-anchor="start" x="556.5" y="-23.3" font-family="Times,serif" font-size="14.00">created_at :datetime</text>
<text text-anchor="start" x="556.5" y="-8.3" font-family="Times,serif" font-size="14.00">updated_at :datetime</text>
</g>
<!-- Choice -->
<g id="node7" class="node"><title>Choice</title>
<path fill="none" stroke="black" d="M328.5,-160.5C328.5,-160.5 435.5,-160.5 435.5,-160.5 441.5,-160.5 447.5,-166.5 447.5,-172.5 447.5,-172.5 447.5,-269.5 447.5,-269.5 447.5,-275.5 441.5,-281.5 435.5,-281.5 435.5,-281.5 328.5,-281.5 328.5,-281.5 322.5,-281.5 316.5,-275.5 316.5,-269.5 316.5,-269.5 316.5,-172.5 316.5,-172.5 316.5,-166.5 322.5,-160.5 328.5,-160.5"/>
<text text-anchor="middle" x="382" y="-266.3" font-family="Times,serif" font-size="14.00">Choice</text>
<polyline fill="none" stroke="black" points="316.5,-258.5 447.5,-258.5 "/>
<text text-anchor="start" x="324.5" y="-243.3" font-family="Times,serif" font-size="14.00">id :integer</text>
<text text-anchor="start" x="324.5" y="-228.3" font-family="Times,serif" font-size="14.00">text :string</text>
<text text-anchor="start" x="324.5" y="-213.3" font-family="Times,serif" font-size="14.00">correct :boolean</text>
<text text-anchor="start" x="324.5" y="-198.3" font-family="Times,serif" font-size="14.00">question_id :integer</text>
<text text-anchor="start" x="324.5" y="-183.3" font-family="Times,serif" font-size="14.00">created_at :datetime</text>
<text text-anchor="start" x="324.5" y="-168.3" font-family="Times,serif" font-size="14.00">updated_at :datetime</text>
</g>
<!-- Ckeditor::Picture -->
<g id="node8" class="node"><title>Ckeditor::Picture</title>
<path fill="none" stroke="black" d="M684,-1131C684,-1131 814,-1131 814,-1131 820,-1131 826,-1137 826,-1143 826,-1143 826,-1315 826,-1315 826,-1321 820,-1327 814,-1327 814,-1327 684,-1327 684,-1327 678,-1327 672,-1321 672,-1315 672,-1315 672,-1143 672,-1143 672,-1137 678,-1131 684,-1131"/>
<text text-anchor="middle" x="749" y="-1311.8" font-family="Times,serif" font-size="14.00">Ckeditor::Picture</text>
<polyline fill="none" stroke="black" points="672,-1304 826,-1304 "/>
<text text-anchor="start" x="680" y="-1288.8" font-family="Times,serif" font-size="14.00">id :integer</text>
<text text-anchor="start" x="680" y="-1273.8" font-family="Times,serif" font-size="14.00">data_file_name :string</text>
<text text-anchor="start" x="680" y="-1258.8" font-family="Times,serif" font-size="14.00">data_content_type :string</text>
<text text-anchor="start" x="680" y="-1243.8" font-family="Times,serif" font-size="14.00">data_file_size :integer</text>
<text text-anchor="start" x="680" y="-1228.8" font-family="Times,serif" font-size="14.00">assetable_id :integer</text>
<text text-anchor="start" x="680" y="-1213.8" font-family="Times,serif" font-size="14.00">assetable_type :string</text>
<text text-anchor="start" x="680" y="-1198.8" font-family="Times,serif" font-size="14.00">type :string</text>
<text text-anchor="start" x="680" y="-1183.8" font-family="Times,serif" font-size="14.00">width :integer</text>
<text text-anchor="start" x="680" y="-1168.8" font-family="Times,serif" font-size="14.00">height :integer</text>
<text text-anchor="start" x="680" y="-1153.8" font-family="Times,serif" font-size="14.00">created_at :datetime</text>
<text text-anchor="start" x="680" y="-1138.8" font-family="Times,serif" font-size="14.00">updated_at :datetime</text>
</g>
<!-- Ckeditor::Asset -->
<g id="node9" class="node"><title>Ckeditor::Asset</title>
<path fill="none" stroke="black" d="M856,-1131C856,-1131 986,-1131 986,-1131 992,-1131 998,-1137 998,-1143 998,-1143 998,-1315 998,-1315 998,-1321 992,-1327 986,-1327 986,-1327 856,-1327 856,-1327 850,-1327 844,-1321 844,-1315 844,-1315 844,-1143 844,-1143 844,-1137 850,-1131 856,-1131"/>
<text text-anchor="middle" x="921" y="-1311.8" font-family="Times,serif" font-size="14.00">Ckeditor::Asset</text>
<polyline fill="none" stroke="black" points="844,-1304 998,-1304 "/>
<text text-anchor="start" x="852" y="-1288.8" font-family="Times,serif" font-size="14.00">id :integer</text>
<text text-anchor="start" x="852" y="-1273.8" font-family="Times,serif" font-size="14.00">data_file_name :string</text>
<text text-anchor="start" x="852" y="-1258.8" font-family="Times,serif" font-size="14.00">data_content_type :string</text>
<text text-anchor="start" x="852" y="-1243.8" font-family="Times,serif" font-size="14.00">data_file_size :integer</text>
<text text-anchor="start" x="852" y="-1228.8" font-family="Times,serif" font-size="14.00">assetable_id :integer</text>
<text text-anchor="start" x="852" y="-1213.8" font-family="Times,serif" font-size="14.00">assetable_type :string</text>
<text text-anchor="start" x="852" y="-1198.8" font-family="Times,serif" font-size="14.00">type :string</text>
<text text-anchor="start" x="852" y="-1183.8" font-family="Times,serif" font-size="14.00">width :integer</text>
<text text-anchor="start" x="852" y="-1168.8" font-family="Times,serif" font-size="14.00">height :integer</text>
<text text-anchor="start" x="852" y="-1153.8" font-family="Times,serif" font-size="14.00">created_at :datetime</text>
<text text-anchor="start" x="852" y="-1138.8" font-family="Times,serif" font-size="14.00">updated_at :datetime</text>
</g>
<!-- Ckeditor::AttachmentFile -->
<g id="node10" class="node"><title>Ckeditor::AttachmentFile</title>
<path fill="none" stroke="black" d="M1028,-1131C1028,-1131 1160,-1131 1160,-1131 1166,-1131 1172,-1137 1172,-1143 1172,-1143 1172,-1315 1172,-1315 1172,-1321 1166,-1327 1160,-1327 1160,-1327 1028,-1327 1028,-1327 1022,-1327 1016,-1321 1016,-1315 1016,-1315 1016,-1143 1016,-1143 1016,-1137 1022,-1131 1028,-1131"/>
<text text-anchor="middle" x="1094" y="-1311.8" font-family="Times,serif" font-size="14.00">Ckeditor::AttachmentFile</text>
<polyline fill="none" stroke="black" points="1016,-1304 1172,-1304 "/>
<text text-anchor="start" x="1024" y="-1288.8" font-family="Times,serif" font-size="14.00">id :integer</text>
<text text-anchor="start" x="1024" y="-1273.8" font-family="Times,serif" font-size="14.00">data_file_name :string</text>
<text text-anchor="start" x="1024" y="-1258.8" font-family="Times,serif" font-size="14.00">data_content_type :string</text>
<text text-anchor="start" x="1024" y="-1243.8" font-family="Times,serif" font-size="14.00">data_file_size :integer</text>
<text text-anchor="start" x="1024" y="-1228.8" font-family="Times,serif" font-size="14.00">assetable_id :integer</text>
<text text-anchor="start" x="1024" y="-1213.8" font-family="Times,serif" font-size="14.00">assetable_type :string</text>
<text text-anchor="start" x="1024" y="-1198.8" font-family="Times,serif" font-size="14.00">type :string</text>
<text text-anchor="start" x="1024" y="-1183.8" font-family="Times,serif" font-size="14.00">width :integer</text>
<text text-anchor="start" x="1024" y="-1168.8" font-family="Times,serif" font-size="14.00">height :integer</text>
<text text-anchor="start" x="1024" y="-1153.8" font-family="Times,serif" font-size="14.00">created_at :datetime</text>
<text text-anchor="start" x="1024" y="-1138.8" font-family="Times,serif" font-size="14.00">updated_at :datetime</text>
</g>
<!-- Relationship -->
<g id="node11" class="node"><title>Relationship</title>
<path fill="none" stroke="black" d="M497.5,-518C497.5,-518 604.5,-518 604.5,-518 610.5,-518 616.5,-524 616.5,-530 616.5,-530 616.5,-612 616.5,-612 616.5,-618 610.5,-624 604.5,-624 604.5,-624 497.5,-624 497.5,-624 491.5,-624 485.5,-618 485.5,-612 485.5,-612 485.5,-530 485.5,-530 485.5,-524 491.5,-518 497.5,-518"/>
<text text-anchor="middle" x="551" y="-608.8" font-family="Times,serif" font-size="14.00">Relationship</text>
<polyline fill="none" stroke="black" points="485.5,-601 616.5,-601 "/>
<text text-anchor="start" x="493.5" y="-585.8" font-family="Times,serif" font-size="14.00">id :integer</text>
<text text-anchor="start" x="493.5" y="-570.8" font-family="Times,serif" font-size="14.00">follower_id :integer</text>
<text text-anchor="start" x="493.5" y="-555.8" font-family="Times,serif" font-size="14.00">followed_id :integer</text>
<text text-anchor="start" x="493.5" y="-540.8" font-family="Times,serif" font-size="14.00">created_at :datetime</text>
<text text-anchor="start" x="493.5" y="-525.8" font-family="Times,serif" font-size="14.00">updated_at :datetime</text>
</g>
<!-- Content -->
<g id="node12" class="node"><title>Content</title>
<path fill="none" stroke="black" d="M510.5,-160.5C510.5,-160.5 617.5,-160.5 617.5,-160.5 623.5,-160.5 629.5,-166.5 629.5,-172.5 629.5,-172.5 629.5,-269.5 629.5,-269.5 629.5,-275.5 623.5,-281.5 617.5,-281.5 617.5,-281.5 510.5,-281.5 510.5,-281.5 504.5,-281.5 498.5,-275.5 498.5,-269.5 498.5,-269.5 498.5,-172.5 498.5,-172.5 498.5,-166.5 504.5,-160.5 510.5,-160.5"/>
<text text-anchor="middle" x="564" y="-266.3" font-family="Times,serif" font-size="14.00">Content</text>
<polyline fill="none" stroke="black" points="498.5,-258.5 629.5,-258.5 "/>
<text text-anchor="start" x="506.5" y="-243.3" font-family="Times,serif" font-size="14.00">id :integer</text>
<text text-anchor="start" x="506.5" y="-228.3" font-family="Times,serif" font-size="14.00">title :string</text>
<text text-anchor="start" x="506.5" y="-213.3" font-family="Times,serif" font-size="14.00">body :string</text>
<text text-anchor="start" x="506.5" y="-198.3" font-family="Times,serif" font-size="14.00">unit_id :integer</text>
<text text-anchor="start" x="506.5" y="-183.3" font-family="Times,serif" font-size="14.00">created_at :datetime</text>
<text text-anchor="start" x="506.5" y="-168.3" font-family="Times,serif" font-size="14.00">updated_at :datetime</text>
</g>
<!-- Content&#45;&gt;Comment -->
<g id="edge3" class="edge"><title>Content&#45;&gt;Comment</title>
<path fill="none" stroke="#20fd0f" d="M591.231,-152.772C594.121,-145.64 597.063,-138.377 599.961,-131.222"/>
<ellipse fill="none" stroke="#20fd0f" cx="589.697" cy="-156.56" rx="4.00001" ry="4.00001"/>
<polygon fill="#20fd0f" stroke="#20fd0f" points="600.122,-130.824 608.047,-123.245 601.999,-126.19 603.876,-121.555 603.876,-121.555 603.876,-121.555 601.999,-126.19 599.705,-119.866 600.122,-130.824 600.122,-130.824"/>
</g>
<!-- Role -->
<g id="node13" class="node"><title>Role</title>
<path fill="none" stroke="black" d="M461.5,-1176C461.5,-1176 568.5,-1176 568.5,-1176 574.5,-1176 580.5,-1182 580.5,-1188 580.5,-1188 580.5,-1270 580.5,-1270 580.5,-1276 574.5,-1282 568.5,-1282 568.5,-1282 461.5,-1282 461.5,-1282 455.5,-1282 449.5,-1276 449.5,-1270 449.5,-1270 449.5,-1188 449.5,-1188 449.5,-1182 455.5,-1176 461.5,-1176"/>
<text text-anchor="middle" x="515" y="-1266.8" font-family="Times,serif" font-size="14.00">Role</text>
<polyline fill="none" stroke="black" points="449.5,-1259 580.5,-1259 "/>
<text text-anchor="start" x="457.5" y="-1243.8" font-family="Times,serif" font-size="14.00">id :integer</text>
<text text-anchor="start" x="457.5" y="-1228.8" font-family="Times,serif" font-size="14.00">name :string</text>
<text text-anchor="start" x="457.5" y="-1213.8" font-family="Times,serif" font-size="14.00">description :string</text>
<text text-anchor="start" x="457.5" y="-1198.8" font-family="Times,serif" font-size="14.00">created_at :datetime</text>
<text text-anchor="start" x="457.5" y="-1183.8" font-family="Times,serif" font-size="14.00">updated_at :datetime</text>
</g>
<!-- User -->
<g id="node14" class="node"><title>User</title>
<path fill="none" stroke="black" d="M427,-715C427,-715 603,-715 603,-715 609,-715 615,-721 615,-727 615,-727 615,-1019 615,-1019 615,-1025 609,-1031 603,-1031 603,-1031 427,-1031 427,-1031 421,-1031 415,-1025 415,-1019 415,-1019 415,-727 415,-727 415,-721 421,-715 427,-715"/>
<text text-anchor="middle" x="515" y="-1015.8" font-family="Times,serif" font-size="14.00">User</text>
<polyline fill="none" stroke="black" points="415,-1008 615,-1008 "/>
<text text-anchor="start" x="423" y="-992.8" font-family="Times,serif" font-size="14.00">id :integer</text>
<text text-anchor="start" x="423" y="-977.8" font-family="Times,serif" font-size="14.00">name :string</text>
<text text-anchor="start" x="423" y="-962.8" font-family="Times,serif" font-size="14.00">role_id :integer</text>
<text text-anchor="start" x="423" y="-947.8" font-family="Times,serif" font-size="14.00">created_at :datetime</text>
<text text-anchor="start" x="423" y="-932.8" font-family="Times,serif" font-size="14.00">updated_at :datetime</text>
<text text-anchor="start" x="423" y="-917.8" font-family="Times,serif" font-size="14.00">email :string</text>
<text text-anchor="start" x="423" y="-902.8" font-family="Times,serif" font-size="14.00">encrypted_password :string</text>
<text text-anchor="start" x="423" y="-887.8" font-family="Times,serif" font-size="14.00">reset_password_token :string</text>
<text text-anchor="start" x="423" y="-872.8" font-family="Times,serif" font-size="14.00">reset_password_sent_at :datetime</text>
<text text-anchor="start" x="423" y="-857.8" font-family="Times,serif" font-size="14.00">remember_created_at :datetime</text>
<text text-anchor="start" x="423" y="-842.8" font-family="Times,serif" font-size="14.00">sign_in_count :integer</text>
<text text-anchor="start" x="423" y="-827.8" font-family="Times,serif" font-size="14.00">current_sign_in_at :datetime</text>
<text text-anchor="start" x="423" y="-812.8" font-family="Times,serif" font-size="14.00">last_sign_in_at :datetime</text>
<text text-anchor="start" x="423" y="-797.8" font-family="Times,serif" font-size="14.00">current_sign_in_ip :inet</text>
<text text-anchor="start" x="423" y="-782.8" font-family="Times,serif" font-size="14.00">last_sign_in_ip :inet</text>
<text text-anchor="start" x="423" y="-767.8" font-family="Times,serif" font-size="14.00">photo_file_name :string</text>
<text text-anchor="start" x="423" y="-752.8" font-family="Times,serif" font-size="14.00">photo_content_type :string</text>
<text text-anchor="start" x="423" y="-737.8" font-family="Times,serif" font-size="14.00">photo_file_size :integer</text>
<text text-anchor="start" x="423" y="-722.8" font-family="Times,serif" font-size="14.00">photo_updated_at :datetime</text>
</g>
<!-- Role&#45;&gt;User -->
<g id="edge4" class="edge"><title>Role&#45;&gt;User</title>
<path fill="none" stroke="#f28a9b" d="M515,-1167.44C515,-1132.42 515,-1086.47 515,-1041.36"/>
<ellipse fill="none" stroke="#f28a9b" cx="515" cy="-1171.77" rx="4" ry="4"/>
<polygon fill="#f28a9b" stroke="#f28a9b" points="515,-1041.14 519.5,-1031.14 515,-1036.14 515,-1031.14 515,-1031.14 515,-1031.14 515,-1036.14 510.5,-1031.14 515,-1041.14 515,-1041.14"/>
</g>
<!-- User&#45;&gt;Micropost -->
<g id="edge7" class="edge"><title>User&#45;&gt;Micropost</title>
<path fill="none" stroke="#f01461" d="M408.648,-778.85C369.641,-743.342 325.81,-701.82 288,-662 279.072,-652.597 269.939,-642.296 261.258,-632.128"/>
<ellipse fill="none" stroke="#f01461" cx="411.904" cy="-781.807" rx="4.00002" ry="4.00002"/>
<polygon fill="#f01461" stroke="#f01461" points="261.176,-632.03 258.154,-621.489 257.947,-628.212 254.718,-624.395 254.718,-624.395 254.718,-624.395 257.947,-628.212 251.282,-627.3 261.176,-632.03 261.176,-632.03"/>
</g>
<!-- User&#45;&gt;Topic -->
<g id="edge5" class="edge"><title>User&#45;&gt;Topic</title>
<path fill="none" stroke="#c1d95d" d="M441.968,-707.267C436.489,-694.907 431.069,-682.682 425.86,-670.932"/>
<ellipse fill="none" stroke="#c1d95d" cx="443.763" cy="-711.314" rx="4.00002" ry="4.00002"/>
<polygon fill="#c1d95d" stroke="#c1d95d" points="425.783,-670.758 425.844,-659.792 423.756,-666.187 421.73,-661.616 421.73,-661.616 421.73,-661.616 423.756,-666.187 417.616,-663.44 425.783,-670.758 425.783,-670.758"/>
</g>
<!-- User&#45;&gt;Relationship -->
<g id="edge8" class="edge"><title>User&#45;&gt;Relationship</title>
<path fill="none" stroke="#d950ca" d="M491.556,-706.745C492.47,-697.657 493.914,-688.691 496,-680 499.802,-664.158 506.335,-648.018 513.6,-633.211"/>
<ellipse fill="none" stroke="#d950ca" cx="491.219" cy="-710.773" rx="4" ry="4"/>
<polygon fill="#d950ca" stroke="#d950ca" points="513.662,-633.09 522.21,-626.221 515.931,-628.634 518.2,-624.179 518.2,-624.179 518.2,-624.179 515.931,-628.634 514.19,-622.136 513.662,-633.09 513.662,-633.09"/>
</g>
<!-- User&#45;&gt;Relationship -->
<g id="edge10" class="edge"><title>User&#45;&gt;Relationship</title>
<path fill="none" stroke="#06a028" d="M512.593,-706.764C513.478,-697.688 514.599,-688.718 516,-680 518.449,-664.755 522.677,-648.726 527.366,-633.822"/>
<ellipse fill="none" stroke="#06a028" cx="512.232" cy="-710.78" rx="4" ry="4"/>
<polygon fill="#06a028" stroke="#06a028" points="527.4,-633.717 534.778,-625.604 528.95,-628.963 530.499,-624.209 530.499,-624.209 530.499,-624.209 528.95,-628.963 526.221,-622.814 527.4,-633.717 527.4,-633.717"/>
<text text-anchor="middle" x="573.5" y="-684.3" font-family="Times,serif" font-size="14.00">reverse_relationships</text>
</g>
<!-- User&#45;&gt;User -->
<g id="edge9" class="edge"><title>User&#45;&gt;User</title>
<path fill="none" stroke="#1ff81f" d="M624.915,-883.471C630.014,-880.825 633,-877.335 633,-873 633,-868.665 630.014,-865.175 624.915,-862.529"/>
<polygon fill="#1ff81f" stroke="#1ff81f" points="624.698,-883.549 613.765,-882.699 619.993,-885.241 615.288,-886.933 615.288,-886.933 615.288,-886.933 619.993,-885.241 616.811,-891.168 624.698,-883.549 624.698,-883.549"/>
<polygon fill="#1ff81f" stroke="#1ff81f" points="624.698,-862.451 616.811,-854.832 619.993,-860.759 615.288,-859.067 615.288,-859.067 615.288,-859.067 619.993,-860.759 613.765,-863.301 624.698,-862.451 624.698,-862.451"/>
<text text-anchor="middle" x="674.5" y="-869.3" font-family="Times,serif" font-size="14.00">followed_users</text>
</g>
<!-- User&#45;&gt;User -->
<g id="edge11" class="edge"><title>User&#45;&gt;User</title>
<path fill="none" stroke="#7c700a" d="M625.241,-906.278C672.772,-907.543 716,-896.45 716,-873 716,-849.55 672.772,-838.457 625.241,-839.722"/>
<polygon fill="#7c700a" stroke="#7c700a" points="625.037,-906.269 615.249,-901.325 620.042,-906.045 615.048,-905.82 615.048,-905.82 615.048,-905.82 620.042,-906.045 614.846,-910.316 625.037,-906.269 625.037,-906.269"/>
<polygon fill="#7c700a" stroke="#7c700a" points="625.037,-839.731 614.846,-835.684 620.042,-839.955 615.048,-840.18 615.048,-840.18 615.048,-840.18 620.042,-839.955 615.249,-844.675 625.037,-839.731 625.037,-839.731"/>
<text text-anchor="middle" x="742" y="-869.3" font-family="Times,serif" font-size="14.00">followers</text>
</g>
<!-- User&#45;&gt;Unit -->
<g id="edge6" class="edge"><title>User&#45;&gt;Unit</title>
<path fill="none" stroke="#6831ad" d="M618.531,-728.797C623.44,-718.02 627.69,-707.036 631,-696 655.39,-614.674 642.79,-516.348 629.126,-451.647"/>
<ellipse fill="none" stroke="#6831ad" cx="616.736" cy="-732.605" rx="4.00002" ry="4.00002"/>
<polygon fill="#6831ad" stroke="#6831ad" points="629.057,-451.33 631.326,-440.602 627.993,-446.445 626.929,-441.559 626.929,-441.559 626.929,-441.559 627.993,-446.445 622.532,-442.517 629.057,-451.33 629.057,-451.33"/>
</g>
<!-- Mailboxer::Message -->
<g id="node17" class="node"><title>Mailboxer::Message</title>
<ellipse fill="none" stroke="black" cx="757" cy="-571" rx="83.2649" ry="18"/>
<text text-anchor="middle" x="757" y="-567.3" font-family="Times,serif" font-size="14.00">Mailboxer::Message</text>
</g>
<!-- User&#45;&gt;Mailboxer::Message -->
<g id="edge12" class="edge"><title>User&#45;&gt;Mailboxer::Message</title>
<path fill="none" stroke="#81c6a1" d="M620.387,-743.708C633.431,-727.677 646.55,-711.482 659,-696 686.499,-661.804 717.885,-621.942 737.57,-596.838"/>
<ellipse fill="none" stroke="#81c6a1" cx="617.724" cy="-746.979" rx="4.00002" ry="4.00002"/>
<polygon fill="#81c6a1" stroke="#81c6a1" points="737.607,-596.791 747.317,-591.695 740.691,-592.855 743.775,-588.919 743.775,-588.919 743.775,-588.919 740.691,-592.855 740.233,-586.144 737.607,-596.791 737.607,-596.791"/>
<text text-anchor="middle" x="695" y="-684.3" font-family="Times,serif" font-size="14.00">messages</text>
</g>
<!-- Mailboxer::Receipt -->
<g id="node18" class="node"><title>Mailboxer::Receipt</title>
<ellipse fill="none" stroke="black" cx="938" cy="-571" rx="78.9404" ry="18"/>
<text text-anchor="middle" x="938" y="-567.3" font-family="Times,serif" font-size="14.00">Mailboxer::Receipt</text>
</g>
<!-- User&#45;&gt;Mailboxer::Receipt -->
<g id="edge13" class="edge"><title>User&#45;&gt;Mailboxer::Receipt</title>
<path fill="none" stroke="#ea5d89" d="M622.416,-812.974C690.056,-773.782 777.735,-719.175 849,-662 874.046,-641.906 899.497,-615.428 916.73,-596.401"/>
<ellipse fill="none" stroke="#ea5d89" cx="618.568" cy="-815.196" rx="4.00002" ry="4.00002"/>
<polygon fill="#ea5d89" stroke="#ea5d89" points="916.916,-596.193 926.94,-591.745 920.252,-592.468 923.587,-588.743 923.587,-588.743 923.587,-588.743 920.252,-592.468 920.235,-585.741 916.916,-596.193 916.916,-596.193"/>
<text text-anchor="middle" x="844.5" y="-684.3" font-family="Times,serif" font-size="14.00">receipts</text>
</g>
<!-- Unit&#45;&gt;Comment -->
<g id="edge15" class="edge"><title>Unit&#45;&gt;Comment</title>
<path fill="none" stroke="#4d80af" d="M632.161,-312.383C634.579,-302.288 636.656,-291.936 638,-282 644.76,-232.015 641.897,-175.124 637.534,-131.718"/>
<ellipse fill="none" stroke="#4d80af" cx="631.125" cy="-316.529" rx="4.00001" ry="4.00001"/>
<polygon fill="#4d80af" stroke="#4d80af" points="637.51,-131.494 640.935,-121.077 636.985,-126.522 636.46,-121.549 636.46,-121.549 636.46,-121.549 636.985,-126.522 631.985,-122.022 637.51,-131.494 637.51,-131.494"/>
</g>
<!-- Unit&#45;&gt;Content -->
<g id="edge14" class="edge"><title>Unit&#45;&gt;Content</title>
<path fill="none" stroke="#01ba89" d="M590.912,-312.47C588.858,-305.564 586.768,-298.538 584.707,-291.61"/>
<ellipse fill="none" stroke="#01ba89" cx="592.091" cy="-316.433" rx="4.00001" ry="4.00001"/>
<polygon fill="#01ba89" stroke="#01ba89" points="584.567,-291.14 586.029,-280.272 583.141,-286.348 581.716,-281.555 581.716,-281.555 581.716,-281.555 583.141,-286.348 577.403,-282.838 584.567,-291.14 584.567,-291.14"/>
</g>
<!-- Question&#45;&gt;Choice -->
<g id="edge16" class="edge"><title>Question&#45;&gt;Choice</title>
<path fill="none" stroke="#dad1ae" d="M382,-319.708C382,-310.511 382,-300.956 382,-291.58"/>
<ellipse fill="none" stroke="#dad1ae" cx="382" cy="-323.827" rx="4" ry="4"/>
<polygon fill="#dad1ae" stroke="#dad1ae" points="382,-291.502 386.5,-281.502 382,-286.502 382,-281.502 382,-281.502 382,-281.502 382,-286.502 377.5,-281.502 382,-291.502 382,-291.502"/>
</g>
</g>
</svg>
