<?xml version="1.0" encoding="UTF-8" standalone="no"?>
<!DOCTYPE svg PUBLIC "-//W3C//DTD SVG 1.1//EN"
 "http://www.w3.org/Graphics/SVG/1.1/DTD/svg11.dtd">
<!-- Generated by graphviz version 2.36.0 (20140111.2315)
 -->
<!-- Title: models_diagram Pages: 1 -->
<svg width="996pt" height="470pt"
 viewBox="0.00 0.00 996.00 470.00" xmlns="http://www.w3.org/2000/svg" xmlns:xlink="http://www.w3.org/1999/xlink">
<g id="graph0" class="graph" transform="scale(1 1) rotate(0) translate(4 466)">
<title>models_diagram</title>
<polygon fill="none" stroke="none" points="-4,4 -4,-466 992,-466 992,4 -4,4"/>
<!-- _diagram_info -->
<g id="node1" class="node"><title>_diagram_info</title>
<text text-anchor="start" x="7" y="-447.6" font-family="Times,serif" font-size="13.00">Models diagram</text>
<text text-anchor="start" x="7" y="-433.6" font-family="Times,serif" font-size="13.00">Date: Aug 18 2015 &#45; 20:57</text>
<text text-anchor="start" x="7" y="-419.6" font-family="Times,serif" font-size="13.00">Migration version: 20150713223158</text>
<text text-anchor="start" x="7" y="-405.6" font-family="Times,serif" font-size="13.00">Generated by RailRoady 1.3.1</text>
<text text-anchor="start" x="7" y="-391.6" font-family="Times,serif" font-size="13.00">http://railroady.prestonlee.com</text>
</g>
<!-- Lecturer -->
<g id="node2" class="node"><title>Lecturer</title>
<ellipse fill="none" stroke="black" cx="271" cy="-423" rx="39.9464" ry="18"/>
<text text-anchor="middle" x="271" y="-419.3" font-family="Times,serif" font-size="14.00">Lecturer</text>
</g>
<!-- Micropost -->
<g id="node3" class="node"><title>Micropost</title>
<ellipse fill="none" stroke="black" cx="202" cy="-240" rx="47.169" ry="18"/>
<text text-anchor="middle" x="202" y="-236.3" font-family="Times,serif" font-size="14.00">Micropost</text>
</g>
<!-- Ability -->
<g id="node4" class="node"><title>Ability</title>
<polygon fill="none" stroke="black" points="457.25,-441 402.75,-441 402.75,-405 457.25,-405 457.25,-441"/>
<text text-anchor="middle" x="430" y="-419.3" font-family="Times,serif" font-size="14.00">Ability</text>
</g>
<!-- Topic -->
<g id="node5" class="node"><title>Topic</title>
<ellipse fill="none" stroke="black" cx="299" cy="-240" rx="31.2965" ry="18"/>
<text text-anchor="middle" x="299" y="-236.3" font-family="Times,serif" font-size="14.00">Topic</text>
</g>
<!-- Unit -->
<g id="node15" class="node"><title>Unit</title>
<ellipse fill="none" stroke="black" cx="455" cy="-166" rx="27" ry="18"/>
<text text-anchor="middle" x="455" y="-162.3" font-family="Times,serif" font-size="14.00">Unit</text>
</g>
<!-- Topic&#45;&gt;Unit -->
<g id="edge1" class="edge"><title>Topic&#45;&gt;Unit</title>
<path fill="none" stroke="#bed1fe" d="M330.094,-224.649C357.359,-212.065 396.789,-193.867 424.02,-181.298"/>
<ellipse fill="none" stroke="#bed1fe" cx="326.325" cy="-226.388" rx="4.00002" ry="4.00002"/>
<polygon fill="#bed1fe" stroke="#bed1fe" points="424.024,-181.297 434.989,-181.192 428.564,-179.201 433.103,-177.106 433.103,-177.106 433.103,-177.106 428.564,-179.201 431.218,-173.02 424.024,-181.297 424.024,-181.297"/>
</g>
<!-- Question -->
<g id="node16" class="node"><title>Question</title>
<ellipse fill="none" stroke="black" cx="299" cy="-166" rx="42.3701" ry="18"/>
<text text-anchor="middle" x="299" y="-162.3" font-family="Times,serif" font-size="14.00">Question</text>
</g>
<!-- Topic&#45;&gt;Question -->
<g id="edge2" class="edge"><title>Topic&#45;&gt;Question</title>
<path fill="none" stroke="#f674b6" d="M299,-213.792C299,-207.58 299,-200.896 299,-194.579"/>
<ellipse fill="none" stroke="#f674b6" cx="299" cy="-217.937" rx="4" ry="4"/>
<polygon fill="#f674b6" stroke="#f674b6" points="299,-194.441 303.5,-184.441 299,-189.441 299,-184.441 299,-184.441 299,-184.441 299,-189.441 294.5,-184.441 299,-194.441 299,-194.441"/>
</g>
<!-- Comment -->
<g id="node6" class="node"><title>Comment</title>
<ellipse fill="none" stroke="black" cx="465" cy="-18" rx="46.2191" ry="18"/>
<text text-anchor="middle" x="465" y="-14.3" font-family="Times,serif" font-size="14.00">Comment</text>
</g>
<!-- Choice -->
<g id="node7" class="node"><title>Choice</title>
<ellipse fill="none" stroke="black" cx="299" cy="-92" rx="35.6194" ry="18"/>
<text text-anchor="middle" x="299" y="-88.3" font-family="Times,serif" font-size="14.00">Choice</text>
</g>
<!-- Ckeditor::Picture -->
<g id="node8" class="node"><title>Ckeditor::Picture</title>
<ellipse fill="none" stroke="black" cx="547" cy="-423" rx="71.2405" ry="18"/>
<text text-anchor="middle" x="547" y="-419.3" font-family="Times,serif" font-size="14.00">Ckeditor::Picture</text>
</g>
<!-- Ckeditor::Asset -->
<g id="node9" class="node"><title>Ckeditor::Asset</title>
<ellipse fill="none" stroke="black" cx="702" cy="-423" rx="65.4659" ry="18"/>
<text text-anchor="middle" x="702" y="-419.3" font-family="Times,serif" font-size="14.00">Ckeditor::Asset</text>
</g>
<!-- Ckeditor::AttachmentFile -->
<g id="node10" class="node"><title>Ckeditor::AttachmentFile</title>
<ellipse fill="none" stroke="black" cx="887" cy="-423" rx="101.087" ry="18"/>
<text text-anchor="middle" x="887" y="-419.3" font-family="Times,serif" font-size="14.00">Ckeditor::AttachmentFile</text>
</g>
<!-- Relationship -->
<g id="node11" class="node"><title>Relationship</title>
<ellipse fill="none" stroke="black" cx="403" cy="-240" rx="55.3682" ry="18"/>
<text text-anchor="middle" x="403" y="-236.3" font-family="Times,serif" font-size="14.00">Relationship</text>
</g>
<!-- Content -->
<g id="node12" class="node"><title>Content</title>
<ellipse fill="none" stroke="black" cx="422" cy="-92" rx="38.0212" ry="18"/>
<text text-anchor="middle" x="422" y="-88.3" font-family="Times,serif" font-size="14.00">Content</text>
</g>
<!-- Content&#45;&gt;Comment -->
<g id="edge3" class="edge"><title>Content&#45;&gt;Comment</title>
<path fill="none" stroke="#a3fcc3" d="M436.091,-67.4058C440.456,-60.0968 445.285,-52.0104 449.727,-44.5737"/>
<ellipse fill="none" stroke="#a3fcc3" cx="434.024" cy="-70.8666" rx="4.00002" ry="4.00002"/>
<polygon fill="#a3fcc3" stroke="#a3fcc3" points="449.953,-44.1941 458.944,-37.916 452.517,-39.9014 455.081,-35.6087 455.081,-35.6087 455.081,-35.6087 452.517,-39.9014 451.217,-33.3013 449.953,-44.1941 449.953,-44.1941"/>
</g>
<!-- Role -->
<g id="node13" class="node"><title>Role</title>
<ellipse fill="none" stroke="black" cx="357" cy="-423" rx="26.949" ry="18"/>
<text text-anchor="middle" x="357" y="-419.3" font-family="Times,serif" font-size="14.00">Role</text>
</g>
<!-- User -->
<g id="node14" class="node"><title>User</title>
<ellipse fill="none" stroke="black" cx="357" cy="-328" rx="26.949" ry="18"/>
<text text-anchor="middle" x="357" y="-324.3" font-family="Times,serif" font-size="14.00">User</text>
</g>
<!-- Role&#45;&gt;User -->
<g id="edge4" class="edge"><title>Role&#45;&gt;User</title>
<path fill="none" stroke="#a44259" d="M357,-396.562C357,-384.078 357,-369.025 357,-356.299"/>
<ellipse fill="none" stroke="#a44259" cx="357" cy="-400.942" rx="4" ry="4"/>
<polygon fill="#a44259" stroke="#a44259" points="357,-356.264 361.5,-346.264 357,-351.264 357,-346.264 357,-346.264 357,-346.264 357,-351.264 352.5,-346.264 357,-356.264 357,-356.264"/>
</g>
<!-- User&#45;&gt;Micropost -->
<g id="edge7" class="edge"><title>User&#45;&gt;Micropost</title>
<path fill="none" stroke="#e94de0" d="M329.419,-311.697C303.533,-297.334 264.712,-275.795 236.726,-260.267"/>
<ellipse fill="none" stroke="#e94de0" cx="333.239" cy="-313.816" rx="4.00002" ry="4.00002"/>
<polygon fill="#e94de0" stroke="#e94de0" points="236.429,-260.103 229.868,-251.316 232.057,-257.677 227.685,-255.251 227.685,-255.251 227.685,-255.251 232.057,-257.677 225.502,-259.186 236.429,-260.103 236.429,-260.103"/>
</g>
<!-- User&#45;&gt;Topic -->
<g id="edge5" class="edge"><title>User&#45;&gt;Topic</title>
<path fill="none" stroke="#2dcc7d" d="M340.263,-305.019C337.124,-300.743 333.916,-296.265 331,-292 325.282,-283.635 319.306,-274.292 314.087,-265.912"/>
<ellipse fill="none" stroke="#2dcc7d" cx="342.7" cy="-308.298" rx="4.00002" ry="4.00002"/>
<polygon fill="#2dcc7d" stroke="#2dcc7d" points="314.018,-265.8 312.6,-254.926 311.394,-261.544 308.77,-257.288 308.77,-257.288 308.77,-257.288 311.394,-261.544 304.939,-259.65 314.018,-265.8 314.018,-265.8"/>
</g>
<!-- User&#45;&gt;Relationship -->
<g id="edge8" class="edge"><title>User&#45;&gt;Relationship</title>
<path fill="none" stroke="#0831c3" d="M340.162,-304.582C335.374,-295.379 332.724,-284.833 338,-276 342.393,-268.645 348.924,-262.745 356.176,-258.041"/>
<ellipse fill="none" stroke="#0831c3" cx="342.303" cy="-308.18" rx="4.00002" ry="4.00002"/>
<polygon fill="#0831c3" stroke="#0831c3" points="356.246,-258.001 367.163,-256.964 360.591,-255.527 364.936,-253.053 364.936,-253.053 364.936,-253.053 360.591,-255.527 362.709,-249.142 356.246,-258.001 356.246,-258.001"/>
</g>
<!-- User&#45;&gt;Relationship -->
<g id="edge10" class="edge"><title>User&#45;&gt;Relationship</title>
<path fill="none" stroke="#cff65a" d="M353.234,-301.826C353.031,-293.241 354.071,-283.838 358,-276 360.495,-271.023 364.066,-266.543 368.12,-262.583"/>
<ellipse fill="none" stroke="#cff65a" cx="353.52" cy="-306.059" rx="4" ry="4"/>
<polygon fill="#cff65a" stroke="#cff65a" points="368.204,-262.511 378.732,-259.442 372.007,-259.265 375.81,-256.019 375.81,-256.019 375.81,-256.019 372.007,-259.265 372.889,-252.596 368.204,-262.511 368.204,-262.511"/>
<text text-anchor="middle" x="415.5" y="-280.3" font-family="Times,serif" font-size="14.00">reverse_relationships</text>
</g>
<!-- User&#45;&gt;User -->
<g id="edge9" class="edge"><title>User&#45;&gt;User</title>
<path fill="none" stroke="#397c85" d="M393.943,-330.972C398.789,-330.463 402,-329.472 402,-328 402,-326.528 398.789,-325.537 393.943,-325.028"/>
<polygon fill="#397c85" stroke="#397c85" points="393.787,-330.978 383.619,-326.871 388.791,-331.173 383.795,-331.368 383.795,-331.368 383.795,-331.368 388.791,-331.173 383.97,-335.864 393.787,-330.978 393.787,-330.978"/>
<polygon fill="#397c85" stroke="#397c85" points="393.787,-325.022 383.97,-320.136 388.791,-324.827 383.795,-324.632 383.795,-324.632 383.795,-324.632 388.791,-324.827 383.619,-329.129 393.787,-325.022 393.787,-325.022"/>
<text text-anchor="middle" x="443.5" y="-324.3" font-family="Times,serif" font-size="14.00">followed_users</text>
</g>
<!-- User&#45;&gt;User -->
<g id="edge11" class="edge"><title>User&#45;&gt;User</title>
<path fill="none" stroke="#3f0597" d="M393.442,-333.639C432.147,-336.205 485,-334.325 485,-328 485,-321.675 432.147,-319.795 393.442,-322.361"/>
<polygon fill="#3f0597" stroke="#3f0597" points="393.422,-333.638 383.81,-328.359 388.437,-333.241 383.453,-332.845 383.453,-332.845 383.453,-332.845 388.437,-333.241 383.096,-337.331 393.422,-333.638 393.422,-333.638"/>
<polygon fill="#3f0597" stroke="#3f0597" points="393.422,-322.362 383.096,-318.669 388.437,-322.759 383.453,-323.155 383.453,-323.155 383.453,-323.155 388.437,-322.759 383.81,-327.641 393.422,-322.362 393.422,-322.362"/>
<text text-anchor="middle" x="511" y="-324.3" font-family="Times,serif" font-size="14.00">followers</text>
</g>
<!-- User&#45;&gt;Unit -->
<g id="edge6" class="edge"><title>User&#45;&gt;Unit</title>
<path fill="none" stroke="#e14e5e" d="M392.255,-326.86C419.14,-324.659 454.585,-316.792 473,-292 494.541,-263 480.898,-219.55 468.437,-192.263"/>
<ellipse fill="none" stroke="#e14e5e" cx="388.207" cy="-327.119" rx="4" ry="4"/>
<polygon fill="#e14e5e" stroke="#e14e5e" points="468.312,-192.004 468.02,-181.042 466.14,-187.501 463.967,-182.998 463.967,-182.998 463.967,-182.998 466.14,-187.501 459.914,-184.953 468.312,-192.004 468.312,-192.004"/>
</g>
<!-- Mailboxer::Message -->
<g id="node17" class="node"><title>Mailboxer::Message</title>
<ellipse fill="none" stroke="black" cx="599" cy="-240" rx="83.2649" ry="18"/>
<text text-anchor="middle" x="599" y="-236.3" font-family="Times,serif" font-size="14.00">Mailboxer::Message</text>
</g>
<!-- User&#45;&gt;Mailboxer::Message -->
<g id="edge12" class="edge"><title>User&#45;&gt;Mailboxer::Message</title>
<path fill="none" stroke="#785b28" d="M391.016,-321.14C420.641,-315.472 464.453,-305.721 501,-292 522.407,-283.963 545.13,-272.351 563.299,-262.237"/>
<ellipse fill="none" stroke="#785b28" cx="386.986" cy="-321.894" rx="4.00001" ry="4.00001"/>
<polygon fill="#785b28" stroke="#785b28" points="563.652,-262.037 574.572,-261.028 568.004,-259.574 572.355,-257.111 572.355,-257.111 572.355,-257.111 568.004,-259.574 570.138,-253.195 563.652,-262.037 563.652,-262.037"/>
<text text-anchor="middle" x="563" y="-280.3" font-family="Times,serif" font-size="14.00">messages</text>
</g>
<!-- Mailboxer::Receipt -->
<g id="node18" class="node"><title>Mailboxer::Receipt</title>
<ellipse fill="none" stroke="black" cx="780" cy="-240" rx="78.9404" ry="18"/>
<text text-anchor="middle" x="780" y="-236.3" font-family="Times,serif" font-size="14.00">Mailboxer::Receipt</text>
</g>
<!-- User&#45;&gt;Mailboxer::Receipt -->
<g id="edge13" class="edge"><title>User&#45;&gt;Mailboxer::Receipt</title>
<path fill="none" stroke="#b96fa8" d="M391.915,-323.14C438.179,-317.725 522.208,-306.848 593,-292 638.047,-282.552 688.339,-268.641 725.413,-257.734"/>
<ellipse fill="none" stroke="#b96fa8" cx="387.701" cy="-323.628" rx="4.00001" ry="4.00001"/>
<polygon fill="#b96fa8" stroke="#b96fa8" points="725.434,-257.728 736.3,-259.201 730.228,-256.307 735.022,-254.887 735.022,-254.887 735.022,-254.887 730.228,-256.307 733.743,-250.572 725.434,-257.728 725.434,-257.728"/>
<text text-anchor="middle" x="676.5" y="-280.3" font-family="Times,serif" font-size="14.00">receipts</text>
</g>
<!-- Unit&#45;&gt;Comment -->
<g id="edge15" class="edge"><title>Unit&#45;&gt;Comment</title>
<path fill="none" stroke="#309696" d="M462.625,-140.512C465.194,-131.075 467.731,-120.133 469,-110 471.666,-88.7194 470.385,-64.4467 468.59,-46.3247"/>
<ellipse fill="none" stroke="#309696" cx="461.486" cy="-144.511" rx="4.00001" ry="4.00001"/>
<polygon fill="#309696" stroke="#309696" points="468.567,-46.1162 471.941,-35.6824 468.018,-41.1464 467.469,-36.1767 467.469,-36.1767 467.469,-36.1767 468.018,-41.1464 462.996,-36.671 468.567,-46.1162 468.567,-46.1162"/>
</g>
<!-- Unit&#45;&gt;Content -->
<g id="edge14" class="edge"><title>Unit&#45;&gt;Content</title>
<path fill="none" stroke="#237853" d="M444.073,-141.16C440.835,-134.095 437.272,-126.321 433.971,-119.119"/>
<ellipse fill="none" stroke="#237853" cx="445.845" cy="-145.026" rx="4.00002" ry="4.00002"/>
<polygon fill="#237853" stroke="#237853" points="433.854,-118.864 433.778,-107.898 431.771,-114.318 429.688,-109.773 429.688,-109.773 429.688,-109.773 431.771,-114.318 425.597,-111.648 433.854,-118.864 433.854,-118.864"/>
</g>
<!-- Question&#45;&gt;Choice -->
<g id="edge16" class="edge"><title>Question&#45;&gt;Choice</title>
<path fill="none" stroke="#637269" d="M299,-139.792C299,-133.58 299,-126.896 299,-120.579"/>
<ellipse fill="none" stroke="#637269" cx="299" cy="-143.937" rx="4" ry="4"/>
<polygon fill="#637269" stroke="#637269" points="299,-120.441 303.5,-110.441 299,-115.441 299,-110.441 299,-110.441 299,-110.441 299,-115.441 294.5,-110.441 299,-120.441 299,-120.441"/>
</g>
</g>
</svg>
